<svg xmlns="http://www.w3.org/2000/svg" version="1.0" width="200.000000" height="200.000000" preserveAspectRatio="xMidYMid meet"><rect id="backgroundrect" width="100%" height="100%" x="0" y="0" fill="none" stroke="none"/>


<g class="currentLayer" style=""><title>Layer 1</title><g transform="translate(0,200) scale(0.10000000149011612,-0.10000000149011612) " fill="#e84141" stroke="none" id="svg_1" class="selected" fill-opacity="1">
<path d="M928 1816 c-59 -16 -119 -55 -151 -98 -14 -18 -83 -145 -155 -283 -282 -543 -386 -765 -400 -858 -25 -159 55 -306 203 -374 51 -23 73 -27 145 -27 150 1 262 49 378 162 l52 51 53 -51 c116 -114 227 -161 377 -162 72 0 94 4 147 28 106 48 184 148 201 260 20 125 -12 209 -278 731 -281 552 -283 556 -375 600 -63 30 -136 38 -197 21z m150 -120 c15 -8 37 -25 48 -38 42 -46 463 -877 520 -1026 44 -115 26 -212 -53 -283 -55 -50 -99 -62 -197 -57 -92 5 -145 28 -234 98 -82 66 -83 68 -16 166 161 240 180 437 53 563 -58 58 -104 76 -199 76 -95 0 -138 -17 -198 -76 -128 -126 -110 -322 52 -563 67 -98 66 -100 -16 -166 -89 -70 -142 -93 -234 -98 -98 -5 -142 7 -197 57 -79 71 -97 168 -53 283 51 135 475 975 515 1022 46 54 147 74 209 42z m-1 -627 c129 -62 122 -226 -17 -437 -30 -45 -57 -82 -60 -82 -12 0 -114 165 -139 224 -13 34 -27 89 -29 123 -4 54 -1 69 22 106 46 80 138 107 223 66z" id="svg_2" fill="#e84141" fill-opacity="1"/>
</g></g></svg>