<svg xmlns="http://www.w3.org/2000/svg" version="1.0" width="176.000000" height="184.000000" preserveAspectRatio="xMidYMid meet"><rect id="backgroundrect" width="100%" height="100%" x="0" y="0" fill="none" stroke="none"/>


<g class="currentLayer" style=""><title>Layer 1</title><g transform="translate(0,184) scale(0.10000000149011612,-0.10000000149011612) " fill="#e84141" stroke="none" id="svg_1" class="selected" fill-opacity="1">
<path d="M1082 1833 c-22 -9 -42 -60 -42 -108 0 -25 -2 -45 -4 -45 -3 0 -31 16 -63 35 -105 63 -90 68 -543 -194 -283 -164 -400 -237 -412 -258 -22 -35 -24 -130 -3 -157 39 -51 133 -74 187 -45 18 10 20 9 13 -7 -72 -180 -80 -360 -23 -529 72 -214 233 -380 448 -461 l75 -28 374 -4 c428 -4 432 -3 477 73 l24 42 0 441 0 442 35 0 c44 0 86 21 114 56 30 38 29 129 -2 167 -12 15 -94 70 -182 121 l-160 94 -5 165 c-7 216 1 207 -169 206 -69 0 -132 -3 -139 -6z m-87 -607 c181 -48 300 -188 326 -384 34 -253 -95 -485 -304 -547 -70 -21 -201 -19 -274 3 -274 86 -404 424 -267 694 34 67 121 157 183 191 98 54 233 71 336 43z" id="svg_2" fill="#e84141" fill-opacity="1"/>
</g></g></svg>