<svg width="300" height="91" viewBox="0 0 300 91" fill="none" xmlns="http://www.w3.org/2000/svg">
<path d="M107.3 22.9999C106.9 24.4999 106.2 24.7999 103.9 24.2999C101.7 23.8999 98.9001 24.9999 91.1001 29.3999C85.6001 32.4999 80.4001 35.7999 79.5001 36.5999C77.4001 38.6999 79.2001 41.9999 82.5001 41.9999C84.7001 41.9999 84.9001 42.1999 84.0001 44.5999C80.7001 53.1999 86.5001 65.5999 95.3001 68.8999C99.3001 70.3999 119.3 70.2999 120.8 68.7999C121.6 67.9999 122 63.4999 122 55.3999C122 44.1999 122.2 43.0999 123.9 42.4999C126.3 41.7999 127.4 39.0999 125.9 37.3999C125.3 36.6999 122.8 34.8999 120.4 33.4999C116.1 30.9999 116 30.7999 116 25.9999V20.9999H111.9C108.7 20.9999 107.7 21.3999 107.3 22.9999ZM111.3 40.7999C116.6 46.0999 116.1 55.9999 110.2 61.2999C105.2 65.8999 95.8001 63.9999 92.0001 57.6999C84.0001 44.6999 100.6 30.1999 111.3 40.7999Z" fill="#FF5869"/>
<path d="M7.00005 32.8C5.10005 33.7 2.70005 36 1.70005 37.8C-1.99995 44.1 2.00005 49.6 12.3 52.4C21 54.8 23.8 56 24.4 57.6C26.7 63.6 13.8 66.2 6.80005 61C3.50005 58.6 0.700045 58.7 0.200045 61.3C-0.299955 63.8 1.80005 66 6.50005 68.1C15.3 72.1 27.8 69.2 30.6 62.5C33.6 55.2 30.1 51 17.4 47.1C7.20005 44 5.20005 42 9.00005 38.8C12.3 36.1 19.3 36.7 23.8 40C26.8 42.2 27.2 42.3 28.6 40.8C34.7 34.7 16.6 27.9 7.00005 32.8Z" fill="white"/>
<path d="M48.9001 33.3C42.7001 36.6 38.9001 43 38.9001 50.3C38.9001 61.2 45.9001 68.9 56.5001 69.8C65.8001 70.6 75.0001 66.1 72.5001 62C71.6001 60.6 69.5001 60.8 64.1001 62.7C61.0001 63.8 58.2001 64.1 55.8001 63.6C51.6001 62.8 46.0001 57.9 46.0001 54.9C46.0001 53.1 46.9001 53 60.4001 53C76.7001 53 77.7001 52.6 76.7001 46.4C74.7001 34 60.3001 27.3 48.9001 33.3ZM63.9001 38.4C67.0001 40 70.0001 44 70.0001 46.5C70.0001 47.8 68.1001 48 58.0001 48C47.8001 48 46.0001 47.8 46.0001 46.4C46.0001 39.5 56.7001 34.7 63.9001 38.4Z" fill="white"/>
<path d="M131.6 32.5C130.2 36.2 131.9 36.9 142.1 37.2L152 37.5L141.5 50C126.9 67.5 127.3 69 146.5 69C158.7 69 162 68.2 162 65.1C162 62.5 160.1 62 149.4 62H139.9L149.8 50.2C161.2 36.6 162.2 35.1 160.9 32.7C160 31.2 158.1 31 146.1 31C134.7 31 132.1 31.3 131.6 32.5Z" fill="white"/>
<path d="M177.2 33.1C166.3 38.5 163.5 54 171.7 63.1C177.9 70 186.4 71.8 194.5 68.1C205.7 63 209.5 49.2 202.5 39C197.2 31.4 186 28.8 177.2 33.1ZM195.1 40.6C206.5 51.5 193 70.4 179.9 61.7C175.4 58.7 172.6 53 173.4 48.5C174.2 44.7 178.2 39.3 181.4 37.9C185.3 36.3 191.9 37.5 195.1 40.6Z" fill="white"/>
<path d="M215.7 31.7C215.3 32 215 40.6 215 50.7C215 66.8 215.2 69.1 216.6 69.7C220.5 71.2 221.5 68.9 222 56.2C222.5 44.1 222.5 44 225.8 40.8C228.6 38 229.7 37.5 234 37.5C238.3 37.5 239.4 38 242.2 40.8L245.5 44L245.8 56C246.2 68.6 247 70.8 251 69.5C252.9 68.9 253 68.1 253 57.5C253 51.2 252.5 44.9 251.9 43.3C250.5 39.5 245.2 34.1 241.3 32.4C238 31 217 30.4 215.7 31.7Z" fill="white"/>
<path d="M273.5 32.4C266.5 35.5 262 42.6 262 50.5C262 65.1 276.3 73.8 291 68.2C294.2 66.9 295.6 65.8 295.8 64.2C296.3 61 293.6 60.4 288.1 62.4C282.3 64.4 279.7 64.4 275.4 62.4C272.2 60.9 269 56.7 269 54.1C269 53.4 274.5 52.9 283.6 52.8C300 52.5 300.8 52.1 299.6 45.8C297.5 34.5 284.2 27.7 273.5 32.4ZM287 38.5C290.3 40.2 293 43.7 293 46.2C293 47.8 291.8 48 281 48C273.3 48 269 47.6 269 47C269 44.6 272.2 40 274.8 38.6C278.3 36.6 283.3 36.6 287 38.5Z" fill="white"/>
</svg>
